<svg width="32" height="32" viewBox="0 0 32 32" fill="none" xmlns="http://www.w3.org/2000/svg">
<path d="M10.7072 9.29289C10.3167 8.90237 9.68351 8.90237 9.29299 9.29289C8.90246 9.68342 8.90246 10.3166 9.29299 10.7071L14.5858 16L9.29289 21.2929C8.90237 21.6834 8.90237 22.3166 9.29289 22.7071C9.68342 23.0976 10.3166 23.0976 10.7071 22.7071L16 17.4142L21.293 22.7071C21.6835 23.0976 22.3167 23.0976 22.7072 22.7071C23.0977 22.3166 23.0977 21.6834 22.7072 21.2929L17.4143 16L22.7071 10.7071C23.0976 10.3166 23.0976 9.68342 22.7071 9.29289C22.3166 8.90237 21.6834 8.90237 21.2929 9.29289L16 14.5857L10.7072 9.29289Z" fill="#111315"/>
<rect x="0.5" y="0.5" width="31" height="31" rx="15.5" stroke="#DEDDDD"/>
</svg>
