<svg width="16" height="16" viewBox="0 0 16 16" fill="none" xmlns="http://www.w3.org/2000/svg">
<path d="M8 1C6.61553 1 5.26216 1.41054 4.11101 2.17971C2.95987 2.94888 2.06266 4.04213 1.53285 5.32122C1.00303 6.6003 0.86441 8.00777 1.13451 9.36563C1.4046 10.7235 2.07129 11.9708 3.05026 12.9497C4.02922 13.9287 5.2765 14.5954 6.63437 14.8655C7.99224 15.1356 9.3997 14.997 10.6788 14.4672C11.9579 13.9373 13.0511 13.0401 13.8203 11.889C14.5895 10.7378 15 9.38447 15 8C14.9979 6.14412 14.2598 4.36484 12.9475 3.05253C11.6352 1.74022 9.85588 1.00206 8 1ZM8 13.5C6.91221 13.5 5.84884 13.1774 4.94437 12.5731C4.0399 11.9687 3.33495 11.1098 2.91867 10.1048C2.50238 9.09977 2.39347 7.9939 2.60568 6.927C2.8179 5.86011 3.34173 4.8801 4.11092 4.11091C4.8801 3.34172 5.86011 2.8179 6.92701 2.60568C7.9939 2.39346 9.09977 2.50238 10.1048 2.91866C11.1098 3.33494 11.9687 4.03989 12.5731 4.94436C13.1774 5.84883 13.5 6.9122 13.5 8C13.4983 9.45815 12.9182 10.8561 11.8872 11.8872C10.8561 12.9182 9.45816 13.4983 8 13.5ZM6.7281 5.3327C6.72812 5.0979 6.79777 4.86838 6.92823 4.67315C7.05869 4.47793 7.24412 4.32578 7.46105 4.23594C7.67799 4.1461 7.91669 4.1226 8.14698 4.16842C8.37726 4.21424 8.58879 4.32732 8.75482 4.49336C8.92084 4.6594 9.0339 4.87093 9.0797 5.10122C9.1255 5.33152 9.10198 5.57022 9.01212 5.78715C8.92226 6.00407 8.7701 6.18948 8.57487 6.31993C8.37963 6.45037 8.1501 6.52 7.9153 6.52C7.75939 6.52 7.605 6.48929 7.46096 6.42962C7.31691 6.36995 7.18603 6.28249 7.07579 6.17224C6.96555 6.06199 6.8781 5.9311 6.81844 5.78705C6.75879 5.643 6.72809 5.48861 6.7281 5.3327ZM9.2211 11.5687C9.24509 11.5924 9.26132 11.6229 9.26767 11.656C9.27402 11.6892 9.27018 11.7235 9.25666 11.7544C9.24314 11.7853 9.22058 11.8114 9.19194 11.8293C9.16329 11.8471 9.12992 11.8559 9.0962 11.8544H7.6071C7.46136 11.8575 7.32036 11.8026 7.21507 11.7018C7.10978 11.6009 7.04883 11.4624 7.0456 11.3167V7.4893C7.04789 7.38542 7.09129 7.2867 7.16628 7.21478C7.24127 7.14287 7.34172 7.10364 7.4456 7.1057H8.46C8.56388 7.10366 8.66432 7.1429 8.7393 7.21481C8.81429 7.28672 8.85769 7.38543 8.86 7.4893V10.7267C8.8607 10.8841 8.89302 11.0397 8.95505 11.1844C9.01709 11.329 9.10756 11.4597 9.2211 11.5687Z" fill="#22313F"/>
</svg>
