<svg width="44" height="44" viewBox="0 0 44 44" fill="none" xmlns="http://www.w3.org/2000/svg">
<rect x="0.5" y="0.5" width="43" height="43" rx="21.5" fill="white"/>
<path d="M24 16C24 17.1046 23.1046 18 22 18C20.8954 18 20 17.1046 20 16C20 14.8954 20.8954 14 22 14C23.1046 14 24 14.8954 24 16Z" fill="#6F767E"/>
<path d="M24 22C24 23.1046 23.1046 24 22 24C20.8954 24 20 23.1046 20 22C20 20.8954 20.8954 20 22 20C23.1046 20 24 20.8954 24 22Z" fill="#6F767E"/>
<path d="M24 28C24 29.1046 23.1046 30 22 30C20.8954 30 20 29.1046 20 28C20 26.8954 20.8954 26 22 26C23.1046 26 24 26.8954 24 28Z" fill="#6F767E"/>
<rect x="0.5" y="0.5" width="43" height="43" rx="21.5" stroke="#DEDDDD"/>
</svg>
