<svg width="40" height="40" viewBox="0 0 40 40" fill="none" xmlns="http://www.w3.org/2000/svg">
<rect width="40" height="40" rx="20" fill="#EFEFEF"/>
<path d="M22.488 13C22.6854 13.0001 22.8784 13.0587 23.0425 13.1685C23.2066 13.2783 23.3345 13.4343 23.41 13.6168C23.4856 13.7993 23.5053 14.0001 23.4668 14.1939C23.4283 14.3876 23.3333 14.5656 23.1937 14.7053L17.9097 19.9932L23.1938 25.281C23.2895 25.3731 23.3658 25.4834 23.4184 25.6053C23.4709 25.7273 23.4987 25.8585 23.5 25.9913C23.5012 26.1241 23.476 26.2558 23.4259 26.3788C23.3757 26.5017 23.3015 26.6134 23.2076 26.7074C23.1138 26.8013 23.0022 26.8755 22.8793 26.9258C22.7564 26.976 22.6248 27.0012 22.4921 27C22.3594 26.9987 22.2283 26.9709 22.1064 26.9183C21.9845 26.8657 21.8743 26.7894 21.7823 26.6936L15.7925 20.6995C15.6998 20.6068 15.6262 20.4967 15.576 20.3755C15.5258 20.2543 15.5 20.1244 15.5 19.9932C15.5 19.862 15.5258 19.7321 15.576 19.6109C15.6262 19.4897 15.6998 19.3796 15.7925 19.2869L21.7823 13.2927C21.8749 13.1998 21.9849 13.1261 22.106 13.0759C22.2271 13.0257 22.3569 12.9999 22.488 13Z" fill="#009DBE"/>
</svg>
