<svg width="16" height="16" viewBox="0 0 16 16" fill="none" xmlns="http://www.w3.org/2000/svg">
<path fill-rule="evenodd" clip-rule="evenodd" d="M8.00065 13.334C10.9462 13.334 13.334 10.9462 13.334 8.00065C13.334 5.05513 10.9462 2.66732 8.00065 2.66732C5.05513 2.66732 2.66732 5.05513 2.66732 8.00065C2.66732 10.9462 5.05513 13.334 8.00065 13.334ZM8.00065 14.6673C11.6825 14.6673 14.6673 11.6825 14.6673 8.00065C14.6673 4.31875 11.6825 1.33398 8.00065 1.33398C4.31875 1.33398 1.33398 4.31875 1.33398 8.00065C1.33398 11.6825 4.31875 14.6673 8.00065 14.6673Z" fill="#6F767E"/>
<path fill-rule="evenodd" clip-rule="evenodd" d="M8.00065 4C8.36884 4 8.66732 4.29848 8.66732 4.66667V7.72386L10.1387 9.19526C10.3991 9.45561 10.3991 9.87772 10.1387 10.1381C9.87837 10.3984 9.45626 10.3984 9.19591 10.1381L7.72451 8.66667C7.47446 8.41662 7.33398 8.07748 7.33398 7.72386V4.66667C7.33398 4.29848 7.63246 4 8.00065 4Z" fill="#6F767E"/>
</svg>
