<svg width="24" height="24" viewBox="0 0 24 24" fill="none" xmlns="http://www.w3.org/2000/svg">
<path d="M9.27815 9.26494C8.73997 9.80651 8.37346 10.4965 8.22497 11.2477C8.07648 11.9989 8.15269 12.7775 8.44395 13.4851C8.73521 14.1927 9.22844 14.7975 9.86128 15.223C10.4941 15.6485 11.2381 15.8756 11.9992 15.8756C12.7603 15.8756 13.5043 15.6485 14.1372 15.223C14.77 14.7975 15.2633 14.1927 15.5545 13.4851C15.8458 12.7775 15.922 11.9989 15.7735 11.2477C15.625 10.4965 15.2585 9.80651 14.7203 9.26494C13.9875 8.56021 13.0129 8.16693 11.9992 8.16693C10.9856 8.16693 10.011 8.56021 9.27815 9.26494ZM13.6326 13.6458C13.3096 13.9709 12.8981 14.1923 12.45 14.282C12.0019 14.3717 11.5375 14.3257 11.1154 14.1498C10.6933 13.9739 10.3326 13.676 10.0788 13.2938C9.82495 12.9115 9.68948 12.4621 9.68948 12.0024C9.68948 11.5427 9.82495 11.0933 10.0788 10.7111C10.3326 10.3288 10.6933 10.0309 11.1154 9.85503C11.5375 9.67912 12.0019 9.63312 12.45 9.72284C12.8981 9.81256 13.3096 10.034 13.6326 10.3591C14.0647 10.7955 14.3072 11.3864 14.3072 12.0025C14.3072 12.6185 14.0647 13.2094 13.6326 13.6459V13.6458ZM21.4641 9.68624C20.5667 7.94784 19.206 6.49523 17.5344 5.49114C15.8629 4.48705 13.9465 3.97116 12 4.00124C10.0534 3.97124 8.13703 4.48717 6.4654 5.49127C4.79378 6.49536 3.43296 7.94796 2.53538 9.68635C2.18317 10.4062 2 11.1979 2 12.0003C2 12.8026 2.18317 13.5943 2.53538 14.3142C3.43308 16.0524 4.79393 17.5049 6.46554 18.5089C8.13715 19.5129 10.0535 20.0288 12 19.9988C13.9466 20.0288 15.863 19.5129 17.5346 18.5087C19.2061 17.5045 20.5668 16.0517 21.4641 14.3131C21.8166 13.5936 22 12.802 22 11.9997C22 11.1975 21.8166 10.4059 21.4641 9.68635V9.68624ZM20.0821 13.6338C19.3119 15.1124 18.148 16.3462 16.7206 17.1969C15.2932 18.0476 13.6587 18.4817 12 18.4506C10.3414 18.4815 8.70693 18.0473 7.27957 17.1966C5.85222 16.3459 4.68826 15.1123 3.91795 13.6338C3.66858 13.1258 3.53887 12.5668 3.53887 12.0003C3.53887 11.4337 3.66858 10.8747 3.91795 10.3667C4.68814 8.8881 5.85206 7.65436 7.27943 6.80358C8.70681 5.95279 10.3413 5.51853 12 5.54939C13.6587 5.5183 15.2933 5.95247 16.7207 6.80328C18.1482 7.65409 19.312 8.88795 20.0821 10.3667C20.3317 10.8746 20.4616 11.4336 20.4616 12.0003C20.4616 12.5669 20.3317 13.1259 20.0821 13.6338Z" fill="#33383F"/>
</svg>
