<svg width="24" height="24" viewBox="0 0 24 24" fill="none" xmlns="http://www.w3.org/2000/svg">
<path fill-rule="evenodd" clip-rule="evenodd" d="M14.5357 3.80739C15.7073 2.63582 17.6067 2.63582 18.7783 3.80739L20.1925 5.2216C21.3641 6.39318 21.3641 8.29267 20.1925 9.46424L9.80003 19.8568C9.66043 19.9964 9.48263 20.0915 9.28904 20.1302L3.98573 21.1909C3.28601 21.3308 2.66909 20.7139 2.80904 20.0142L3.8697 14.7109C3.90842 14.5173 4.00357 14.3395 4.14317 14.1999L14.5357 3.80739ZM17.3641 5.2216L18.7783 6.63582C19.1688 7.02634 19.1688 7.65951 18.7783 8.05003L17.3641 9.46425L14.5357 6.63582L15.9499 5.2216C16.3404 4.83108 16.9736 4.83108 17.3641 5.2216ZM13.1215 8.05003L5.77148 15.4L5.06437 18.9356L8.59991 18.2284L15.9499 10.8785L13.1215 8.05003Z" fill="#6F767E"/>
</svg>
