<svg width="24" height="24" viewBox="0 0 24 24" fill="none" xmlns="http://www.w3.org/2000/svg">
<path d="M6.77119 4.47385C6.48297 4.00386 5.86511 3.85298 5.42318 4.1826C5.03313 4.47352 4.66282 4.79 4.31468 5.12996C3.92023 5.51514 3.97301 6.14897 4.39235 6.50689C4.81169 6.8648 5.43831 6.81028 5.84043 6.43311C6.04275 6.24335 6.25373 6.06303 6.4727 5.89275C6.90791 5.5543 7.0594 4.94383 6.77119 4.47385Z" fill="#111315"/>
<path d="M17.2288 4.47385C17.517 4.00386 18.1349 3.85298 18.5768 4.1826C18.9668 4.47352 19.3371 4.79 19.6853 5.12996C20.0797 5.51514 20.027 6.14897 19.6076 6.50689C19.1883 6.8648 18.5617 6.81028 18.1595 6.43311C17.9572 6.24335 17.7462 6.06303 17.5273 5.89275C17.0921 5.5543 16.9406 4.94383 17.2288 4.47385Z" fill="#111315"/>
<path d="M15.2071 11.2071C15.5976 10.8166 15.5976 10.1834 15.2071 9.79289C14.8166 9.40237 14.1834 9.40237 13.7929 9.79289L12.518 11.0677C12.3528 11.0236 12.1792 11 12 11C10.8954 11 10 11.8954 10 13C10 14.1046 10.8954 15 12 15C13.1046 15 14 14.1046 14 13C14 12.8208 13.9764 12.6472 13.9323 12.482L15.2071 11.2071Z" fill="#111315"/>
<path fill-rule="evenodd" clip-rule="evenodd" d="M10 2C9.44772 2 9 2.44772 9 3C9 3.55228 9.44772 4 10 4H11V5.06189C7.05369 5.55399 4 8.92038 4 13C4 17.4183 7.58172 21 12 21C16.4183 21 20 17.4183 20 13C20 8.92038 16.9463 5.55399 13 5.06189V4H14C14.5523 4 15 3.55228 15 3C15 2.44772 14.5523 2 14 2H10ZM12 19C15.3137 19 18 16.3137 18 13C18 9.68629 15.3137 7 12 7C8.68629 7 6 9.68629 6 13C6 16.3137 8.68629 19 12 19Z" fill="#111315"/>
</svg>
