<svg width="24" height="24" viewBox="0 0 24 24" fill="none" xmlns="http://www.w3.org/2000/svg">
<path d="M18.5 9.01198C18.4999 8.81458 18.4413 8.62162 18.3315 8.4575C18.2217 8.29339 18.0657 8.16548 17.8832 8.08995C17.7007 8.01442 17.4999 7.99466 17.3061 8.03317C17.1124 8.07167 16.9344 8.16672 16.7947 8.30628L11.5068 13.5903L6.21897 8.30618C6.12689 8.21053 6.01665 8.1342 5.89469 8.08163C5.77274 8.02907 5.64152 8.00133 5.50871 8.00005C5.37589 7.99876 5.24416 8.02395 5.12121 8.07414C4.99825 8.12434 4.88655 8.19853 4.79263 8.29237C4.69871 8.38621 4.62446 8.49783 4.57423 8.62069C4.52399 8.74355 4.49877 8.87519 4.50005 9.0079C4.50132 9.14062 4.52907 9.27175 4.58166 9.39362C4.63426 9.51549 4.71064 9.62566 4.80635 9.71768L10.8005 15.7075C10.8932 15.8002 11.0033 15.8738 11.1245 15.924C11.2457 15.9742 11.3756 16 11.5068 16C11.638 16 11.7679 15.9742 11.8891 15.924C12.0103 15.8738 12.1204 15.8002 12.2131 15.7075L18.2073 9.71768C18.3002 9.62512 18.3739 9.51513 18.4241 9.39402C18.4743 9.27291 18.5001 9.14308 18.5 9.01198Z" fill="#22313F"/>
</svg>
