<svg width="24" height="24" viewBox="0 0 24 24" fill="none" xmlns="http://www.w3.org/2000/svg">
<path d="M8.51198 5C8.31458 5.00006 8.12162 5.05869 7.9575 5.16848C7.79339 5.27826 7.66548 5.43427 7.58995 5.61679C7.51442 5.79931 7.49466 6.00014 7.53317 6.19389C7.57167 6.38765 7.66672 6.56563 7.80628 6.70534L13.0903 11.9932L7.80618 17.281C7.71054 17.3731 7.6342 17.4834 7.58163 17.6053C7.52907 17.7273 7.50133 17.8585 7.50005 17.9913C7.49876 18.1241 7.52395 18.2558 7.57414 18.3788C7.62434 18.5017 7.69853 18.6134 7.79237 18.7074C7.88622 18.8013 7.99783 18.8755 8.12069 18.9258C8.24355 18.976 8.37519 19.0012 8.5079 19C8.64062 18.9987 8.77175 18.9709 8.89362 18.9183C9.01549 18.8657 9.12566 18.7894 9.21768 18.6936L15.2075 12.6995C15.3002 12.6068 15.3738 12.4967 15.424 12.3755C15.4742 12.2543 15.5 12.1244 15.5 11.9932C15.5 11.862 15.4742 11.7321 15.424 11.6109C15.3738 11.4897 15.3002 11.3796 15.2075 11.2869L9.21768 5.29271C9.12512 5.19981 9.01513 5.12612 8.89402 5.07588C8.77291 5.02565 8.64308 4.99986 8.51198 5Z" fill="#22313F"/>
</svg>
