<svg width="16" height="17" viewBox="0 0 16 17" fill="none" xmlns="http://www.w3.org/2000/svg">
<path fill-rule="evenodd" clip-rule="evenodd" d="M3.28548 12.3088C3.00148 11.9498 2.65648 11.2158 2.04247 10.3248C1.69447 9.82078 0.831475 8.87178 0.574475 8.38978C0.351475 7.96378 0.375475 7.77278 0.428475 7.41978C0.522475 6.79178 1.16648 6.30278 1.85348 6.36878C2.37248 6.41778 2.81248 6.76078 3.20848 7.08478C3.44748 7.27978 3.74148 7.65878 3.91848 7.87278C4.08148 8.06878 4.12147 8.14978 4.29548 8.38178C4.52548 8.68878 4.59748 8.84078 4.50948 8.50278C4.43848 8.00678 4.32247 7.15978 4.15447 6.41078C4.02647 5.84278 3.99548 5.75378 3.87348 5.31778C3.74448 4.85378 3.67848 4.52878 3.55748 4.03678C3.47347 3.68878 3.32247 2.97778 3.28148 2.57778C3.22448 2.03078 3.19447 1.13878 3.54548 0.728782C3.82048 0.407782 4.45148 0.310782 4.84247 0.508782C5.35448 0.767782 5.64547 1.51178 5.77847 1.80878C6.01747 2.34278 6.16547 2.95978 6.29448 3.76978C6.45848 4.80078 6.76047 6.23178 6.77047 6.53278C6.79448 6.16378 6.70248 5.38678 6.76648 5.03278C6.82448 4.71178 7.09448 4.33878 7.43248 4.23778C7.71848 4.15278 8.05347 4.12178 8.34847 4.18278C8.66148 4.24678 8.99148 4.47078 9.11448 4.68178C9.47647 5.30578 9.48347 6.58078 9.49848 6.51278C9.58448 6.13678 9.56948 5.28378 9.78248 4.92878C9.92248 4.69478 10.2795 4.48378 10.4695 4.44978C10.7635 4.39778 11.1245 4.38178 11.4335 4.44178C11.6825 4.49078 12.0195 4.78678 12.1105 4.92878C12.3285 5.27278 12.4525 6.24578 12.4895 6.58678C12.5045 6.72778 12.5635 6.19478 12.7825 5.85078C13.1885 5.21178 14.6255 5.08778 14.6805 6.48978C14.7055 7.14378 14.7005 7.11378 14.7005 7.55378C14.7005 8.07078 14.6885 8.38178 14.6605 8.75578C14.6295 9.15578 14.5435 10.0598 14.4185 10.4978C14.3325 10.7988 14.0475 11.4758 13.7665 11.8818C13.7665 11.8818 12.6925 13.1318 12.5755 13.6948C12.4575 14.2568 12.4965 14.2608 12.4735 14.6598C12.4505 15.0578 12.5945 15.5818 12.5945 15.5818C12.5945 15.5818 11.7925 15.6858 11.3605 15.6168C10.9695 15.5538 10.4855 14.7758 10.3605 14.5378C10.1885 14.2098 9.82148 14.2728 9.67848 14.5148C9.45347 14.8978 8.96947 15.5848 8.62747 15.6278C7.95947 15.7118 6.57347 15.6588 5.48847 15.6478C5.48847 15.6478 5.67348 14.6368 5.26148 14.2898C4.95648 14.0308 4.43148 13.5058 4.11748 13.2298L3.28548 12.3088Z" fill="white"/>
<path fill-rule="evenodd" clip-rule="evenodd" d="M3.28548 12.3088C3.00148 11.9498 2.65648 11.2158 2.04247 10.3248C1.69447 9.82078 0.831475 8.87178 0.574475 8.38978C0.351475 7.96378 0.375475 7.77278 0.428475 7.41978C0.522475 6.79178 1.16648 6.30278 1.85348 6.36878C2.37248 6.41778 2.81248 6.76078 3.20848 7.08478C3.44748 7.27978 3.74148 7.65878 3.91848 7.87278C4.08148 8.06878 4.12148 8.14978 4.29548 8.38178C4.52548 8.68878 4.59748 8.84078 4.50948 8.50278C4.43848 8.00678 4.32247 7.15978 4.15447 6.41078C4.02647 5.84278 3.99548 5.75378 3.87348 5.31778C3.74448 4.85378 3.67848 4.52878 3.55748 4.03678C3.47348 3.68878 3.32248 2.97778 3.28148 2.57778C3.22448 2.03078 3.19447 1.13878 3.54548 0.728782C3.82048 0.407782 4.45147 0.310782 4.84247 0.508782C5.35447 0.767782 5.64547 1.51178 5.77847 1.80878C6.01747 2.34278 6.16548 2.95978 6.29448 3.76978C6.45848 4.80078 6.76047 6.23178 6.77047 6.53278C6.79447 6.16378 6.70248 5.38678 6.76648 5.03278C6.82448 4.71178 7.09448 4.33878 7.43248 4.23778C7.71848 4.15278 8.05347 4.12178 8.34847 4.18278C8.66147 4.24678 8.99148 4.47078 9.11448 4.68178C9.47648 5.30578 9.48348 6.58078 9.49848 6.51278C9.58448 6.13678 9.56948 5.28378 9.78248 4.92878C9.92248 4.69478 10.2795 4.48378 10.4695 4.44978C10.7635 4.39778 11.1245 4.38178 11.4335 4.44178C11.6825 4.49078 12.0195 4.78678 12.1105 4.92878C12.3285 5.27278 12.4525 6.24578 12.4895 6.58678C12.5045 6.72778 12.5635 6.19478 12.7825 5.85078C13.1885 5.21178 14.6255 5.08778 14.6805 6.48978C14.7055 7.14378 14.7005 7.11378 14.7005 7.55378C14.7005 8.07078 14.6885 8.38178 14.6605 8.75578C14.6295 9.15578 14.5435 10.0598 14.4185 10.4978C14.3325 10.7988 14.0475 11.4758 13.7665 11.8818C13.7665 11.8818 12.6925 13.1318 12.5755 13.6948C12.4575 14.2568 12.4965 14.2608 12.4735 14.6598C12.4505 15.0578 12.5945 15.5818 12.5945 15.5818C12.5945 15.5818 11.7925 15.6858 11.3605 15.6168C10.9695 15.5538 10.4855 14.7758 10.3605 14.5378C10.1885 14.2098 9.82148 14.2728 9.67848 14.5148C9.45348 14.8978 8.96947 15.5848 8.62747 15.6278C7.95947 15.7118 6.57347 15.6588 5.48847 15.6478C5.48847 15.6478 5.67348 14.6368 5.26148 14.2898C4.95648 14.0308 4.43148 13.5058 4.11748 13.2298L3.28548 12.3088Z" stroke="black" stroke-width="0.75" stroke-linecap="round" stroke-linejoin="round"/>
<path d="M11.5205 12.6631V9.2041" stroke="black" stroke-width="0.75" stroke-linecap="round"/>
<path d="M9.50477 12.6751L9.48877 9.20215" stroke="black" stroke-width="0.75" stroke-linecap="round"/>
<path d="M7.50879 9.2334L7.52979 12.6594" stroke="black" stroke-width="0.75" stroke-linecap="round"/>
</svg>
