<svg width="24" height="24" viewBox="0 0 24 24" fill="none" xmlns="http://www.w3.org/2000/svg">
<path fill-rule="evenodd" clip-rule="evenodd" d="M12 14C13.1046 14 14 13.1046 14 12C14 10.8954 13.1046 10 12 10C10.8954 10 10 10.8954 10 12C10 13.1046 10.8954 14 12 14ZM16 12C16 14.2091 14.2091 16 12 16C9.79086 16 8 14.2091 8 12C8 9.79086 9.79086 8 12 8C14.2091 8 16 9.79086 16 12Z" fill="#6F767E"/>
<path fill-rule="evenodd" clip-rule="evenodd" d="M11.3788 3L10.9913 4.16266C10.6163 5.28756 9.79883 6.07025 8.96511 6.53447C8.90582 6.56749 8.8471 6.60145 8.78899 6.63634C7.96901 7.12859 6.88087 7.44611 5.7178 7.20811L4.51603 6.96218L4.91699 5.00278L6.11876 5.24871C6.68404 5.36439 7.26489 5.21857 7.75959 4.9216C7.83631 4.87554 7.91384 4.83069 7.99216 4.78709C8.49567 4.50673 8.91164 4.07694 9.09389 3.53021L9.48144 2.36754C9.75367 1.55086 10.5179 1 11.3788 1H12.6208C13.4816 1 14.2459 1.55086 14.5181 2.36754L14.9057 3.53021C15.0879 4.07694 15.5039 4.50673 16.0074 4.78709C16.0857 4.83069 16.1633 4.87554 16.24 4.92159C16.7347 5.21857 17.3155 5.36438 17.8808 5.2487L19.0825 5.00279C19.9259 4.8302 20.7851 5.21666 21.2156 5.96218L21.8365 7.03775C22.267 7.78328 22.172 8.72059 21.6009 9.36469L20.7859 10.2838C20.404 10.7144 20.2389 11.2888 20.2481 11.8644C20.2495 11.9548 20.2495 12.0452 20.2481 12.1356C20.2389 12.7111 20.404 13.2855 20.7859 13.7162L21.6009 14.6352C22.172 15.2793 22.267 16.2167 21.8365 16.9622L21.2156 18.0378C20.7851 18.7833 19.9259 19.1697 19.0825 18.9971L17.8809 18.7512C17.3156 18.6356 16.7347 18.7814 16.24 19.0784C16.1633 19.1244 16.0858 19.1693 16.0074 19.2129C15.5039 19.4933 15.0879 19.9231 14.9057 20.4698L14.5181 21.6325C14.2459 22.4491 13.4816 23 12.6208 23H11.3788C10.5179 23 9.75367 22.4491 9.48144 21.6325L9.09389 20.4698C8.91164 19.9231 8.49567 19.4933 7.99216 19.2129C7.91382 19.1693 7.83627 19.1244 7.75952 19.0784C7.26483 18.7814 6.68396 18.6356 6.11868 18.7512L4.91699 18.9971C4.0736 19.1697 3.2144 18.7833 2.78397 18.0378L2.16299 16.9622C1.73256 16.2167 1.82748 15.2793 2.39864 14.6352L3.89504 15.9622L4.51602 17.0378L5.71772 16.7918C6.8808 16.5538 7.96895 16.8714 8.78894 17.3636C8.84707 17.3985 8.9058 17.4325 8.96512 17.4655C9.79883 17.9298 10.6163 18.7124 10.9913 19.8373L11.3788 21L12.6208 21L13.0083 19.8373C13.3833 18.7124 14.2007 17.9298 15.0345 17.4655C15.0938 17.4325 15.1525 17.3985 15.2106 17.3636C16.0306 16.8714 17.1188 16.5538 18.2818 16.7919L19.4835 17.0378L20.1045 15.9622L19.2895 15.0431C18.5047 14.1581 18.2332 13.0606 18.2483 12.1039C18.2494 12.0346 18.2494 11.9653 18.2483 11.8961C18.2332 10.9394 18.5047 9.8418 19.2895 8.95681L20.1045 8.03775L19.4835 6.96218L18.2818 7.2081C17.1187 7.4461 16.0306 7.12858 15.2106 6.63633C15.1525 6.60145 15.0938 6.56749 15.0345 6.53447C14.2007 6.07025 13.3833 5.28756 13.0083 4.16266L12.6208 3L11.3788 3ZM2.39864 14.6352L3.89504 15.9622L4.71007 15.0431C5.49482 14.1581 5.76642 13.0605 5.75126 12.1039C5.75017 12.0346 5.75017 11.9653 5.75126 11.8961C5.76642 10.9394 5.49483 9.84185 4.71007 8.95687L3.89504 8.03775L4.51603 6.96218L4.91699 5.00278C4.0736 4.8302 3.2144 5.21665 2.78397 5.96218L2.16299 7.03775C1.73256 7.78328 1.82748 8.72059 2.39864 9.36469L3.21367 10.2838C3.59558 10.7145 3.76063 11.2889 3.75151 11.8644C3.75008 11.9548 3.75008 12.0452 3.75151 12.1355C3.76063 12.7111 3.59557 13.2854 3.21366 13.7161L2.39864 14.6352Z" fill="#6F767E"/>
</svg>
