<svg width="24" height="24" viewBox="0 0 24 24" fill="none" xmlns="http://www.w3.org/2000/svg">
<path d="M17.2072 9.29099C17.5977 9.68151 17.5977 10.3147 17.2072 10.7052C16.8167 11.0957 16.1835 11.0957 15.793 10.7052L13.002 7.9142V15.0005C13.002 15.5528 12.5543 16.0005 12.002 16.0005C11.4497 16.0005 11.002 15.5528 11.002 15.0005V7.91423L8.20906 10.7072C7.81854 11.0977 7.18537 11.0977 6.79485 10.7072C6.40432 10.3166 6.40432 9.68347 6.79485 9.29294L11.2949 4.79289C11.4824 4.60536 11.7368 4.5 12.002 4.5C12.2672 4.5 12.5216 4.60536 12.7091 4.79289L17.2072 9.29099Z" fill="#009DBE"/>
<path fill-rule="evenodd" clip-rule="evenodd" d="M4 14C4.55228 14 5 14.4477 5 15V17C5 17.5523 5.44772 18 6 18H18C18.5523 18 19 17.5523 19 17V15C19 14.4477 19.4477 14 20 14C20.5523 14 21 14.4477 21 15V17C21 18.6569 19.6569 20 18 20H6C4.34315 20 3 18.6569 3 17V15C3 14.4477 3.44772 14 4 14Z" fill="#009DBE"/>
</svg>
